#!OML:ASF F:\VICON\USERDATA\INSTALL\Justin_Nancy\Justin_Nancy.ASF
:FULLY-SPECIFIED
:DEGREES
121
root -15.2875 16.1642 10.827 -55.4538 -79.7268 68.7983
lowerback 15.4851 -1.01853 -5.22509
upperback 1.80519 -2.22716 1.21227
thorax -6.50911 -0.973297 4.72265
lowerneck -21.4042 -3.35832 -8.37739
upperneck 15.2771 -3.01296 4.93931
head 8.46994 -1.39768 2.63453
rclavicle -1.90833e-014 5.56597e-015
rhumerus -70.5622 3.46852 -87.7281
rradius 113.172
rwrist -9.38365
rhand -18.8792 32.3701
rfingers 7.12502
rthumb 7.42175 2.52033
lclavicle -1.90833e-014 5.56597e-015
lhumerus -37.1256 -3.16578 89.2615
lradius 118.573
lwrist 31.6303
lhand -16.7536 6.45341
lfingers 7.12502
lthumb 9.47305 36.2205
rfemur -52.5212 -10.0025 27.8598
rtibia 89.0733
rfoot -15.8885 2.07882
rtoes -7.66989
lfemur -3.45739 -1.90964 -16.2087
ltibia 33.7318
lfoot -15.0125 -4.45048
ltoes -39.4858
122
root -15.7567 16.2427 10.8995 -64.2616 -80.5869 77.5545
lowerback 15.1226 -0.666201 -5.19631
upperback 1.851 -1.74635 1.09113
thorax -6.32102 -0.749332 4.46598
lowerneck -20.9595 -3.19788 -7.93332
upperneck 15.1143 -2.90725 4.65644
head 8.31965 -1.35544 2.48063
rclavicle 1.66979e-014 -6.36111e-015
rhumerus -71.4101 2.88785 -87.1455
rradius 113.425
rwrist -10.2707
rhand -18.1388 32.6138
rfingers 7.12502
rthumb 8.13635 2.79044
lclavicle 1.66979e-014 -6.36111e-015
lhumerus -37.3347 -3.57923 89.2727
lradius 119.219
lwrist 31.2678
lhand -16.1337 5.86522
lfingers 7.12502
lthumb 10.0712 35.6042
rfemur -53.206 -7.87844 28.1319
rtibia 84.8236
rfoot -16.2431 2.12071
rtoes -6.57609
lfemur -1.02563 -1.94593 -16.3399
ltibia 32.209
lfoot -10.4199 -6.76326
ltoes -37.8572
123
root -16.2339 16.3347 10.9648 -73.6779 -80.9661 86.9909
lowerback 14.8014 -0.409692 -5.1525
upperback 1.77216 -1.40233 0.797666
thorax -6.27573 -0.584733 4.05108
lowerneck -20.5024 -3.02874 -7.5375
upperneck 15.2106 -2.82091 4.57755
head 8.26091 -1.30649 2.40379
rclavicle 1.47101e-014 -2.06736e-014
rhumerus -72.1457 2.57112 -87.0042
rradius 113.524
rwrist -11.0657
rhand -20.1031 32.5933
rfingers 7.12502
rthumb 6.24031 2.70521
lclavicle 1.47101e-014 -2.06736e-014
lhumerus -37.9529 -4.12771 89.1189
lradius 119.677
lwrist 30.4449
lhand -15.5547 6.26591
lfingers 7.12502
lthumb 10.6297 35.9771
rfemur -53.6741 -5.89996 28.0503
rtibia 80.155
rfoot -16.3708 1.97105
rtoes -1.59943
lfemur 1.10644 -2.96583 -16.8353
ltibia 30.7333
lfoot -4.35137 -8.57989
ltoes -34.2426
124
root -16.709 16.3974 10.9541 -96.2642 -81.0277 108.886
lowerback 15.1044 1.01686 -7.98044
upperback 1.99033 0.0660712 1.84154
thorax -6.36737 0.205909 6.51071
lowerneck -20.6022 -3.08754 -8.4158
upperneck 15.8446 -2.55383 4.09654
head 8.48339 -1.29374 2.42098
rclavicle -7.15625e-015 -4.45278e-014
rhumerus -72.4505 3.34738 -85.5249
rradius 113.447
rwrist -11.5344
rhand -23.2608 32.6392
rfingers 7.12502
rthumb 3.19128 2.68339
lclavicle -7.15625e-015 -4.45278e-014
lhumerus -38.6583 -3.97406 90.5943
lradius 119.887
lwrist 29.2322
lhand -15.2509 5.71252
lfingers 7.12502
lthumb 10.9227 35.4084
rfemur -52.6326 -2.20236 28.3536
rtibia 75.0061
rfoot -16.5729 0.298594
rtoes 0.107787
lfemur 4.54411 -2.63777 -17.2391
ltibia 28.9848
lfoot 3.61925 -9.24747
ltoes -27.6083
125
root -17.1795 16.4879 11.0362 -100.475 -81.3959 113.184
lowerback 14.9375 0.759671 -6.79752
upperback 1.84152 -0.0758235 1.69726
thorax -6.41314 0.114503 5.70038
lowerneck -20.5656 -2.87812 -8.29429
upperneck 16.2519 -2.31747 4.0955
head 8.59821 -1.18256 2.43621
rclavicle 2.38542e-015 -2.06736e-014
rhumerus -72.2401 2.87103 -86.0719
rradius 112.871
rwrist -11.4889
rhand -22.1728 32.6608
rfingers 7.12502
rthumb 4.24188 2.72333
lclavicle 2.38542e-015 -2.06736e-014
lhumerus -39.5107 -4.53407 90.0279
lradius 120.061
lwrist 28.7116
lhand -14.8929 5.22024
lfingers 7.12502
lthumb 11.268 34.8976
rfemur -52.5347 -1.91026 29.266
rtibia 69.4495
rfoot -16.5434 -1.27771
rtoes -0.966851
lfemur 5.93307 -4.94306 -17.2838
ltibia 27.405
lfoot 13.3293 -8.69873
ltoes -24.5709
126
root -17.6629 16.5728 11.0937 -106.493 -81.0358 119.133
lowerback 14.9759 0.830407 -5.9468
upperback 1.60456 0.100922 0.931735
thorax -6.71236 0.187829 4.35302
lowerneck -20.1375 -2.69633 -7.58777
upperneck 16.4304 -2.34897 4.21949
head 8.57781 -1.14655 2.36272
rclavicle -1.43125e-014 -8.74653e-015
rhumerus -72.3003 1.39457 -86.957
rradius 112.28
rwrist -10.8857
rhand -18.4072 32.4418
rfingers 7.12502
rthumb 7.87737 2.60855
lclavicle -1.43125e-014 -8.74653e-015
lhumerus -40.5978 -5.86642 88.8806
lradius 120.025
lwrist 28.6447
lhand -14.3965 5.35724
lfingers 7.12502
lthumb 11.7467 35.0079
rfemur -51.901 -1.18171 29.4369
rtibia 63.7399
rfoot -16.3076 -2.50795
rtoes -1.24385
lfemur 7.3708 -7.22216 -18.1832
ltibia 26.1517
lfoot 21.6526 -9.56494
ltoes -25.9804
127
root -18.1513 16.6481 11.1394 -112.575 -80.3764 124.87
lowerback 15.2475 1.09623 -5.75258
upperback 1.46884 0.423983 0.407175
thorax -7.04221 0.344571 3.61285
lowerneck -19.7212 -2.69752 -7.04901
upperneck 16.4631 -2.51124 4.05457
head 8.5168 -1.21176 2.19846
rclavicle -2.78299e-015 1.66979e-014
rhumerus -72.339 0.497429 -87.465
rradius 111.69
rwrist -9.45447
rhand -17.8144 32.374
rfingers 7.12502
rthumb 8.4494 2.56302
lclavicle -2.78299e-015 1.66979e-014
lhumerus -41.6544 -6.93836 88.247
lradius 119.668
lwrist 28.1939
lhand -13.3874 5.51936
lfingers 7.12502
lthumb 12.7197 35.112
rfemur -50.6551 -0.308524 29.3344
rtibia 57.9711
rfoot -15.742 -3.41177
rtoes -0.232637
lfemur 8.78336 -9.65708 -19.5475
ltibia 25.682
lfoot 27.2226 -13.4358
ltoes -24.9185
128
root -18.6343 16.7213 11.2113 -114.756 -80.2271 126.795
lowerback 15.2722 0.877315 -5.29441
upperback 1.48111 0.205494 0.348497
thorax -7.01704 0.222792 3.33583
lowerneck -19.5517 -2.54844 -6.93702
upperneck 16.4166 -2.30507 3.82728
head 8.45509 -1.13355 2.12991
rclavicle 9.14409e-015 -1.59028e-015
rhumerus -71.893 0.77287 -87.7499
rradius 111.153
rwrist -8.07006
rhand -18.5221 32.5401
rfingers 7.12502
rthumb 7.76641 2.70271
lclavicle 9.14409e-015 -1.59028e-015
lhumerus -42.6152 -7.01198 88.0733
lradius 119.017
lwrist 27.3201
lhand -12.5844 5.39716
lfingers 7.12502
lthumb 13.4938 34.94
rfemur -49.4904 -0.70446 29.6781
rtibia 52.3193
rfoot -14.5549 -3.63991
rtoes 1.00538
lfemur 9.68461 -12.417 -20.6941
ltibia 25.6554
lfoot 32.9699 -17.9189
ltoes -20.236
129
root -19.1146 16.8027 11.2905 -113.824 -80.0245 125.722
lowerback 15.0708 0.495332 -5.3202
upperback 1.55462 -0.270233 0.611414
thorax -6.77808 -0.0120751 3.72962
lowerneck -19.5194 -2.34233 -7.15742
upperneck 16.2655 -1.85656 3.32741
head 8.37097 -0.988229 2.05266
rclavicle 7.15625e-015 3.65764e-014
rhumerus -71.1698 1.78615 -87.3653
rradius 110.819
rwrist -7.47685
rhand -18.0955 32.6454
rfingers 7.12502
rthumb 8.17816 2.82366
lclavicle 7.15625e-015 3.65764e-014
lhumerus -43.3614 -6.29915 88.369
lradius 118.006
lwrist 26.1868
lhand -11.7219 4.69796
lfingers 7.12502
lthumb 14.325 34.1838
rfemur -48.4761 -1.46749 29.599
rtibia 46.9734
rfoot -12.8046 -3.60415
rtoes 3.41971
lfemur 9.92525 -14.6895 -21.9796
ltibia 26.4343
lfoot 40.1032 -21.2244
ltoes 12.7658
